<?xml version="1.0" standalone="no"?><!DOCTYPE svg PUBLIC "-//W3C//DTD SVG 1.1//EN" "http://www.w3.org/Graphics/SVG/1.1/DTD/svg11.dtd"><svg t="1711353297222" class="icon" viewBox="0 0 1024 1024" version="1.1" xmlns="http://www.w3.org/2000/svg" p-id="4737" xmlns:xlink="http://www.w3.org/1999/xlink" width="32" height="32"><path d="M2.27555555 512c0 222.09422222 141.99466667 411.42044445 342.24355556 480.59733333 25.48622222 7.28177778 21.84533333-10.92266667 21.84533334-25.48622222v-87.38133333c-152.91733333 18.20444445-160.19911111-83.74044445-171.12177778-101.94488889-21.84533333-36.40888889-69.17688889-43.69066667-54.61333334-61.89511111 36.40888889-18.20444445 72.81777778 3.64088889 112.86755556 65.536 29.12711111 43.69066667 87.38133333 36.40888889 120.14933333 29.12711111 7.28177778-25.48622222 21.84533333-50.97244445 40.04977778-69.17688889-163.84-25.48622222-229.376-123.79022222-229.376-240.29866667 0-54.61333333 18.20444445-109.22666667 54.61333333-149.27644444-25.48622222-69.17688889 0-131.072 3.64088889-138.35377778 65.536-7.28177778 134.71288889 47.33155555 141.99466667 50.97244444 36.40888889-10.92266667 80.09955555-14.56355555 127.43111111-14.56355555 47.33155555 0 91.02222222 7.28177778 127.43111111 14.56355555 14.56355555-10.92266667 76.45866667-54.61333333 138.35377778-50.97244444 3.64088889 7.28177778 29.12711111 65.536 7.28177778 134.71288889 36.40888889 43.69066667 54.61333333 94.66311111 54.61333333 149.27644445 0 116.50844445-65.536 214.81244445-229.376 243.93955555 25.48622222 25.48622222 43.69066667 61.89511111 43.69066667 105.58577778v127.43111111c0 10.92266667 0 21.84533333 18.20444444 21.84533333C876.08888889 927.06133333 1021.72444445 737.73511111 1021.72444445 512c0-280.34844445-229.376-509.72444445-509.72444445-509.72444445S2.27555555 231.65155555 2.27555555 512z" p-id="4738" fill="#cdcdcd"></path></svg>